<svg xmlns="http://www.w3.org/2000/svg" viewBox="0 0 512 512">
  <rect width="512" height="512" rx="96" fill="#0d0d0d"/>
  <!-- Row 0 -->
  <rect x="40" y="40" width="62" height="62" rx="12" fill="#3b82f6"/>
  <rect x="114" y="40" width="62" height="62" rx="12" fill="#6366f1"/>
  <rect x="188" y="40" width="62" height="62" rx="12" fill="#a855f7"/>
  <rect x="262" y="40" width="62" height="62" rx="12" fill="#ec4899"/>
  <rect x="336" y="40" width="62" height="62" rx="12" fill="#ef4444"/>
  <rect x="410" y="40" width="62" height="62" rx="12" fill="#f97316"/>
  <!-- Row 1 -->
  <rect x="40" y="114" width="62" height="62" rx="12" fill="#22c55e"/>
  <rect x="114" y="114" width="62" height="62" rx="12" fill="#3b82f6"/>
  <rect x="188" y="114" width="62" height="62" rx="12" fill="#6366f1"/>
  <rect x="262" y="114" width="62" height="62" rx="12" fill="#a855f7"/>
  <rect x="336" y="114" width="62" height="62" rx="12" fill="#ec4899"/>
  <rect x="410" y="114" width="62" height="62" rx="12" fill="#ef4444"/>
  <!-- Row 2 -->
  <rect x="40" y="188" width="62" height="62" rx="12" fill="#84cc16"/>
  <rect x="114" y="188" width="62" height="62" rx="12" fill="#22c55e"/>
  <rect x="188" y="188" width="62" height="62" rx="12" fill="#14b8a6"/>
  <rect x="262" y="188" width="62" height="62" rx="12" fill="#3b82f6"/>
  <rect x="336" y="188" width="62" height="62" rx="12" fill="#6366f1"/>
  <rect x="410" y="188" width="62" height="62" rx="12" fill="#a855f7"/>
  <!-- Row 3 -->
  <rect x="40" y="262" width="62" height="62" rx="12" fill="#eab308"/>
  <rect x="114" y="262" width="62" height="62" rx="12" fill="#84cc16"/>
  <rect x="188" y="262" width="62" height="62" rx="12" fill="#22c55e"/>
  <rect x="262" y="262" width="62" height="62" rx="12" fill="#14b8a6"/>
  <rect x="336" y="262" width="62" height="62" rx="12" fill="#3b82f6"/>
  <rect x="410" y="262" width="62" height="62" rx="12" fill="#6366f1"/>
  <!-- Row 4 -->
  <rect x="40" y="336" width="62" height="62" rx="12" fill="#f97316"/>
  <rect x="114" y="336" width="62" height="62" rx="12" fill="#eab308"/>
  <rect x="188" y="336" width="62" height="62" rx="12" fill="#84cc16"/>
  <rect x="262" y="336" width="62" height="62" rx="12" fill="#22c55e"/>
  <rect x="336" y="336" width="62" height="62" rx="12" fill="#14b8a6"/>
  <rect x="410" y="336" width="62" height="62" rx="12" fill="#3b82f6"/>
  <!-- Row 5 -->
  <rect x="40" y="410" width="62" height="62" rx="12" fill="#ef4444"/>
  <rect x="114" y="410" width="62" height="62" rx="12" fill="#f97316"/>
  <rect x="188" y="410" width="62" height="62" rx="12" fill="#eab308"/>
  <rect x="262" y="410" width="62" height="62" rx="12" fill="#84cc16"/>
  <rect x="336" y="410" width="62" height="62" rx="12" fill="#22c55e"/>
  <rect x="410" y="410" width="62" height="62" rx="12" fill="#14b8a6"/>
</svg>
